/* XPM */
static char *Collectable03[] = {
/* columns rows colors chars-per-pixel */
"50 50 5 1 ",
"  c None",
". c #880015",
"X c #ED1C24",
"o c #C2574F",
"O c #FFAEC9",
/* pixels */
"                                                  ",
"                                                  ",
"                                                  ",
"                                                  ",
"                                                  ",
"                                                  ",
"                                                  ",
"                                                  ",
"                                                  ",
"                                                  ",
"                                                  ",
"                                                  ",
"                                                  ",
"                                                  ",
"                                                  ",
"                                                  ",
"                                                  ",
"                                                  ",
"                                                  ",
"                                                  ",
"                                                  ",
"                                                  ",
"                                                  ",
"                                                  ",
"                                                  ",
"                                                  ",
"                                                  ",
"                                                  ",
"                          oooooo                  ",
"                        ooooooooooo               ",
"                      ooooooOOOooooo              ",
"                    ooooooOOOOOOoooo              ",
"              oooooooOooooOOooOOOOooo             ",
"            ooooooooOOOooOOOoooOOOOooo            ",
"          oooooooOOoOOoooOOOoOoooOOOooooo         ",
"        oooooooOOOOOOOOooOOOOOOoooOOOOOoooo       ",
"    oooooooooOOOOOOOOOOoooOOOOOooooOOOOOOooooo    ",
"   ooOOOOOooOOOOOOOOOOOoooooOOOOOOooOOoOOOOoooo   ",
"  ooOOOOOOooOOOOOoOOOoooooooooOOOOOoOOoooOOOooo.  ",
" .ooOOoooOOOOOoooooOOOoOOOOOooOOooooooooooooooo.. ",
"..oooOOooOOOOooooooooOOOOOOOOOoooooOOOoooOOooOo...",
"...oooooooOOOOoooooooOOOoooooOOOOOOOOOOOoOOOOoo...",
" .......ooooooooooooooOOOOoooOOOOOOOOooOOOOooo... ",
"  ...X.....o.......ooooOOOOoooooooooooOOOOoooo..  ",
"   ..XX..X.....XX.....ooooooo.....ooooooooo.....  ",
"    ..XXXXX...XXXX.............................   ",
"    ...X.X......XXXX.....X.XXX.....XX.XX.....     ",
"      .....   ....XXXX..XXXXX...XXXXXXX...        ",
"       ..       ..XXX.............XXXX..          ",
"        .       ...X.......     ...X...           "
};
