/* XPM */
static char *Collectable02[] = {
/* columns rows colors chars-per-pixel */
"50 50 9 1 ",
"  c None",
". c black",
"X c #880015",
"o c #C2574F",
"O c #FFF200",
"+ c #F20FED",
"@ c #00A2E8",
"# c #FFAEC9",
"$ c white",
/* pixels */
"                                                  ",
"                                                  ",
"                                                  ",
"                                                  ",
"                                                  ",
"                                                  ",
"                                                  ",
"                                                  ",
"                                                  ",
"                                                  ",
"                                                  ",
"                 ooXX                 ooXX        ",
"               oooooXXX              ooooXXX      ",
"              ooooo##XXXX          ooo##ooXXX     ",
"             ooooo#####XXXXX    ooooo####oooXX    ",
"            oooo##########XXXXoooo#########ooXX   ",
"            ooo#############################ooXX  ",
"           ooo######OOOOOO#########OOOOO#####oXX  ",
"          oooo#####OOO++++O######OOO++++O####ooXX ",
"          ooo#####OO+++++++#####OO+++++++O####oXX ",
"         oooo####OO+###################+++O###ooXX",
"         ooo####OO+##.....#######.....##+++O###oXX",
"         ooo###OO+##.$$$$$.#####.$$$$$.##+++###oXX",
"         ooo#######.@$$$....###.@$$$....#######oXX",
"         ooo#######.@@$.....###.@@$.....#######oXX",
"         ooo########.@@....#####.@@....########oXX",
"         ooo#########.....#######.....#########oXX",
"         oooo#################################ooXX",
"          ooo#################################ooX ",
"          oooo####....################....###ooXX ",
"           ooo#####.....############.....####oXX  ",
"           oooo######....#########.....#####ooXX  ",
"            oooo######....#######....######ooXX   ",
"             ooooo######...........######oooXX    ",
"              ooooo#######.......#######ooXXX     ",
"               oooooo#################oooXXX      ",
"                 oooooooo#########oooooXXX        ",
"                  oooooooooooooooooXXXXXX         ",
"                     ooooooooXXXXXXXXX            ",
"                         ooooXXXXXX               ",
"                                                  ",
"                                                  ",
"                                                  ",
"                                                  ",
"                                                  ",
"                                                  ",
"                                                  ",
"                                                  ",
"                                                  ",
"                                                  "
};
