/* XPM */
static char *EnemyRun04[] = {
/* columns rows colors chars-per-pixel */
"50 50 14 1 ",
"  c black",
". c #880015",
"X c #ED1C24",
"o c #FF7F27",
"O c #B97A57",
"+ c #FFF200",
"@ c #3F48CC",
"# c #A349A4",
"$ c #E378C5",
"% c #06FFE3",
"& c #FFAEC9",
"* c #99D9EA",
"= c white",
"- c None",
/* pixels */
"- X  ------------------------  X -----------------",
"- XXX  --------------------  XXX -----------------",
"- X..XX  --------ooo-----  XX..X -----------------",
"- X...XXX  -ooooo+++o--  XXX...X -----------------",
"- X.X..XXXXo+++oo++++o XXXX..X.X -----------------",
"- X.XX..XXo++++o+o+++ooooo..XX.X -----------------",
"- X.XXX.ooooo+o+++o+o+o+++oXXX.X -----------------",
"- X.XXoo+o+++oo+++oo++o++++oXX.X -----------------",
"- X.Xo+++o++++oo++o+++o+++++oX.X -----------------",
"- X.Xo+++o++++oo++o+++o+oooooX.X -----------------",
"- X.o++++o+ + &&&&&&& o ++++oo.X -----------------",
"- X.o++++ o & & &&& & & & ++o+oX -----------------",
"- XXo++++ # # # &&& # # # &+o++o -----------------",
"- Xoooo+###%%%###&###%%%###&+++o -----------------",
"- o++o+&##%%==%##&##%%==%##&&ooo -----------------",
"--o+++&&&%% ==%%&&&%% ==%%&&&&+o------------------",
"-o+++&&&#%%   %%#&#%%   %%#&&&&+o-----------------",
"-o+++&&&##%%%%%##&##%%%%%##&&&&++o----------------",
"-o++&&&&&##%%%##&&&##%%%##&&&&&&+o----------------",
"-o++&&&&&&#####&&&&&#####&&&&&&&oo----------------",
"--oo&&&&&&&&&&&&&&&&&&&&&&&&&&&&+oo---------------",
"-ooo&&&&&&&&&&&XX&XX&&&&&  &&&&&+o+o--------------",
"o++o&&&&&&&&&&XXXXXXX&&&&&&&&&&+o++o--------------",
"o++o+&&&&&&&&XX     XX&&&&&&&&&o+++o--------------",
"o++ooo&&&&&&&XX     XX&&&&&&&&oo+++oo-------------",
"o++o+++&&&&&&&XXXXXXX&&&&&&&&oo+oooo--------------",
"-oo+o+oo&&&&&&&XXXXX&&&&&&&&++ooooo---------------",
"--oooo++o&&&&&&&&&&&&&&&&&&+++o+++oo--------------",
"--o+++oo+++&&&&&&&&&&&&&&+++++o+++oo--------------",
"--o+++++++####&&&&&&&&o++o++++o++++o--------------",
"---o+++++#####@@@##o++o++o++++o++++o--------------",
"----oo++#####@@@@@##oo++++o++o++++o---------------",
"------oo#####@@**@###oo++++oo++++o----------------",
"-&&&---######@@**@#####oooo@ooooo-----------------",
"-&&&---#$####@@**@##########**@-------------------",
"&&&&&@@@@@@@@@@*@@##########**@-------------------",
"&O&&&@*@@@@@@@@*@@##########**@-------------------",
"&O&&&@*********@@############*@-------------------",
"&O&&&@********@@##############@-------------------",
"&O&&&@@@@@@@@@@################-------------------",
"&&&&-------####################-------------------",
"------------####################------------------",
"------------####################------------------",
"------------#################$$#------------------",
"-------------#######@**#####$$##------------------",
"--------------#####@@**@@###$$#-------------------",
"---------------###@@@@***@@$$##-------------------",
"----------------#@@@@@@****@##--------------------",
"----------------@@@@@@@@@***@---------------------",
"----------------@@@@@@@@@@***@@-------------------"
};
