/* XPM */
static char *EnemyRun07[] = {
/* columns rows colors chars-per-pixel */
"50 50 14 1 ",
"  c black",
". c #880015",
"X c #ED1C24",
"o c #FF7F27",
"O c #B97A57",
"+ c #FFF200",
"@ c #3F48CC",
"# c #A349A4",
"$ c #E378C5",
"% c #06FFE3",
"& c #FFAEC9",
"* c #99D9EA",
"= c white",
"- c None",
/* pixels */
"-----------  ----------------------------  -------",
"----------- X  ------------------------  X -------",
"----------- XXX  --------------------  XXX -------",
"----------- X..XX  --------ooo-----  XX..X -------",
"----------- X...XXX  -ooooo+++o--  XXX...X -------",
"----------- X.X..XXXXo+++oo++++o XXXX..X.X -------",
"----------- X.XX..XXo++++o+o+++ooooo..XX.X -------",
"----------- X.XXX.ooooo+o+++o+o+o+++oXXX.X -------",
"----------- X.XXoo+o+++oo+++oo++o++++oXX.X -------",
"----------- X.Xo+++o++++oo++o+++o+++++oX.X -------",
"----------- X.Xo+++o++++oo++o+++o+oooooX.X -------",
"----------- X.o++++o+ + &&&&&&& o ++++oo.X -------",
"----------- X.o++++ o & & &&& & & & ++o+oX -------",
"----------- XXo++++ # # # &&& # # # &+o++o -------",
"----------- Xoooo+###%%%###&###%%%###&+++o -------",
"----------- o++o+&##%%==%##&##%%==%##&&ooo -&&&&&&",
"------------o+++&&&%% ==%%&&&%% ==%%&&&&+o-&&&OOO&",
"-----------o+++&&&#%%   %%#&#%%   %%#&&&&+o&&OOOO&",
"-----------o+++&&&##%%%%%##&##%%%%%##&&&&++&&OO&&&",
"-----------o++&&&&&##%%%##&&&##%%%##&&&&&&+o&&&&&-",
"-----------o++&&&&&&#####&&&&&#####&&&&&&&oo@@@@@-",
"------------oo&&&&&&&&&&&&&&&&&&&&&&&&&&&&+o@***@-",
"-----------ooo&&&&&&&&&&&XX&XX&&&&&  &&&&&+o@@**@-",
"----------o++o&&&&&&&&&&XXXXXXX&&&&&&&&&&+o+@@**@-",
"----------o++o+&&&&&&&&XX     XX&&&&&&&&&o++@@**@-",
"----------o++ooo&&&&&&&XX     XX&&&&&&&&oo++@@**@-",
"----------o++o+++&&&&&&&XXXXXXX&&&&&&&&oo+oo@@**@-",
"-----------oo+o+oo&&&&&&&XXXXX&&&&&&&&++oooo@@**@-",
"----------@@@@@@++#&&&&&&&&&&&&&&&&&&#++@@@@@@**@-",
"---------@@@***@@####&&&&&&&&&&&&&&####@@@@@@@*@@-",
"--------@@*****@@#######&&&&&&&&#######@@*****@@--",
"-------@@*@@@@@@@###$$$###########$$$##@@***@@@---",
"-------@**@@@@@@###$$#######$#######$$##@@@@@@----",
"-------@**@@----##$$########$########$$#++o-------",
"-------@**@@----##$$########$$#######$$#oo--------",
"-------@**@@---###$$$######$$$######$$$##---------",
"-------@**@@---###$$$$####$$#$$####$$$$##---------",
"-------@**@@---####$$$$$$$$###$$$$$$$$###---------",
"-------@**@@---#####$$$$$$#####$$$$$$#####--------",
"-------@***@--############################--------",
"-------@@@@@--############################--------",
"-------&&&&&-@@#########################@@@-------",
"------&&&&&&&@@@@######################@@@@-------",
"------&&&&&&&@@@@@####################@@@@@@------",
"------&OOOO&&@***@@########$$$#######@@***@@@-----",
"------&&&&&&@*****@@@######$$$#####@@@*****@@-----",
"----------@@***@@***@@############@@***@@***@@----",
"---------@@**@@@@@@***@##########@****@@@@@**@@---",
"--------@@**@@@@@@@@@**@@######@@***@@@@@@@@**@@--",
"--------@**@@@@@@@@@@@**@@####@@**@@@@@@@@@@@**@--"
};
