/* XPM */
static char *EnemyRun08[] = {
/* columns rows colors chars-per-pixel */
"50 50 13 1 ",
"  c black",
". c #880015",
"X c #ED1C24",
"o c #FF7F27",
"O c #B97A57",
"+ c #FFF200",
"@ c #3F48CC",
"# c #A349A4",
"$ c #E378C5",
"% c #FFAEC9",
"& c #99D9EA",
"* c white",
"= c None",
/* pixels */
"======  ============================  ============",
"====== X  ========================  X ============",
"====== XXX  ====================  XXX ============",
"====== X..XX  ========ooo=====  XX..X ============",
"====== X...XXX  =ooooo+++o==  XXX...X ============",
"====== X.X..XXXXo+++oo++++o XXXX..X.X ============",
"====== X.XX..XXo++++o+o+++ooooo..XX.X ============",
"====== X.XXX.ooooo+o+++o+o+o+++oXXX.X ============",
"====== X.XXoo+o+++oo+++oo++o++++oXX.X ============",
"====== X.Xo+++o++++oo++o+++o+++++oX.X ============",
"====== X.Xo++###+++oo++o+++o+###ooX.X ============",
"====== X.o++++####+%%%%%%%%####++oo.X ============",
"====== X.o++++######%%%%%######++o+oX ============",
"====== XXo++++%#**####%####**#%%+o++o ============",
"====== Xoooo+%%#**  ##%##  **#%%%+++o ============",
"%%%%%% o++o+%%%###   #%#   ###%%%%ooo ============",
"%OOO%%%o+++%%%%%%####%%%####%%%%%%%+o=============",
"%OOOO%%+++%%%%%####%%%%%%%####%%%%%%+o============",
"%%%OO%%+++%%%%###%%%XX%%XX%%###%%%%%++o===========",
"=%%%%%o++%%%%%%%%%%XXXXXXXX%%%%%%%%%%+o===========",
"=@@@@@o++%%%%%%%%%XXX****XXX%%%%%%%%%oo===========",
"=@&&&@=oo%%%%%%%%XXX**  **XXX%%%%%%%%+oo==========",
"=@&&@@ooo%%%%%%%XX  **  **  XX%%  %%%+o+o=========",
"=@&&@@++o%%%%%%%XX   *  *   XX%%%%%%+o++o=========",
"=@&&@@++o+%%%%%%%X          X%%%%%%%o+++o=========",
"=@&&@@++ooo%%%%%%XX        XX%%%%%%oo+++o=========",
"=@&&@@++o+++%%%%%%XX *  * XX%%%%%%oo+ooo==========",
"=@&&@@oo+o+o#%%%%%%XX****XX%%%%%%++oooo===========",
"=@&&@@@@@@o+##%%%%%%XXXXXX%%%%%%++@@@@@@==========",
"=@@&@@@@@@@#####%%%%%XXXX%%%%%###@@&&&@@@=========",
"==@@&&&&&@@########%%%%%%%%######@@&&&&&@@========",
"===@@@&&&@@###$$$###########$$$##@@@@@@@&@@=======",
"====@@@@@@###$$#######$#######$$##@@@@@@&&@=======",
"==========##$$########$########$$#+++o@@&&@=======",
"==========##$$########$$#######$$#ooo=@@&&@=======",
"=========###$$$######$$$######$$$##===@@&&@=======",
"=========###$$$$####$$#$$####$$$$##===@@&&@=======",
"=========####$$$$$$$$###$$$$$$$$###===@@&&@=======",
"=========#####$$$$$$#####$$$$$$#####==@@&&@=======",
"========############################==@&&&@=======",
"========#############################=@@@@@=======",
"=======@@@#########################@@@%%%%%=======",
"=======@@@@@######################@@@%%%%%%%======",
"======@@@@@@@####################@@@@%%%%%%%======",
"=====@@@@&&&@@########$$$#######@@&&&%%OOOO%======",
"=====@@@&&&&&@@@######$$$#####@@@&&&&&%%%%%%======",
"====@@@&&&@@&&&@@############@@&&&@@&&&@@=========",
"===@@@&&@@@@@@&&&@##########@&&&&@@@@@&&@@========",
"==@@@&&@@@@@@@@@&&@@######@@&&&@@@@@@@@&&@@=======",
"==@@&&@@@@@@@@@@@&&@@####@@&&@@@@@@@@@@@&&@======="
};
