/* XPM */
static char *EnemyRun03[] = {
/* columns rows colors chars-per-pixel */
"50 50 14 1 ",
"  c black",
". c #880015",
"X c #ED1C24",
"o c #FF7F27",
"O c #B97A57",
"+ c #FFF200",
"@ c #3F48CC",
"# c #A349A4",
"$ c #E378C5",
"% c #06FFE3",
"& c #FFAEC9",
"* c #99D9EA",
"= c white",
"- c None",
/* pixels */
"----------------------------ooo--------------   --",
"-----------------------ooooo+++o------------ .XX -",
"----------------------o+++oo++++o---------- .XXX  ",
"---------------------o++++o+o+++ooooo----- .XXXXX ",
"-------------------ooooo+o+++o+o+o+++o--- .XXXX.. ",
"-----------------oo+o+++oo+++oo++o++++o- .XX.XX.. ",
"----------------o+++o++++oo++o+++o+++++oXXX..XX.. ",
"----------------o+++o++++oo++o+++o+oooooXX...XX.. ",
"---------------o++++o++++o+o+o+++oo++++oo....XX.. ",
"---------------o+++++o+++o+ooo+++o+++++o+o...XX.. ",
"---------------o+++++ooooooo+oooooo++++o++o..XX.. ",
"---------------ooo++o++oooo++oo+o++o++o+++o..XXXX ",
"--------------o+o+o&&&&&&&ooo++oo+++ooooooo..XXXX ",
"--------------oo&&&&###&&&&o+oo+oooooo++++o ..XX -",
"--------------&&&&####&&&&&&oo+++o+o+o+++o+o   X -",
"-------------&&&######&&&&&&o+oo++o++o++o+++o-  --",
"------------&&####=%#&&&&&&&&o+o++oooooo++++o-----",
"-----------&&&## ==%#&&&&&&&&o++o+o++o+++oooo-----",
"----------&&&&#   ###&&&&&&&&oo+oooooo+oo+++oo----",
"----------&&&&&####&&&&&&&&&&&&oo+oo++o+++++o+o---",
"---------&&&&&&&&####&&&&&&&&&&ooooo++oo+++o++o---",
"---------&&&XX&&&&&###&&&&&&&&&o+o++o+o+o+o+++o---",
"---------&&XXXXX&&&&&&&&&&&&&&&o+o+++oooooo+++o---",
"----------XXXXXXXX&&  &&&&&&&&&o+o+++o+ooo+ooo----",
"----------X= = = XX&&&&&&&&&&&&o++o+o++++oooo-----",
"-----------= = =  X&&&&&&&&&&&&oo++o+++++o+++o----",
"----------X     XXX&&&&&&&&&&&&&oo+o+++++o+++o----",
"----------XXXXXXXX&&&&&&&&&&&&&&o+oo++++o++++o----",
"------------XXX&&&&&&&&&&&&&&&&&oo+o++++o++++o----",
"----------------&&&&&&&&&&&&&&&&o+++o++o++++o-----",
"--------------------############o@@@@@@++++o------",
"-------------------#########$###@@***@@@ooo-------",
"-------------------########$$###@@*****@@---------",
"---------&&&------#########$$###@@@@@@@*@@--------",
"---------&&&------#$#######$$####@@@@@@**@--------",
"--------&&&&&@@@@@#$$#####$$#########@@**@--------",
"--------&&OO&@**@@##$$###$$$#########@@**@--------",
"--------&OOO&@*****##$$$$$$##########@@**@--------",
"--------&OO&&@******###$$############@@**@--------",
"--------&OO&&@@@@@@@@@###############@@**@--------",
"--------&&&&----------###############@***@--------",
"-----------------------##############@@@@@#-------",
"-----------------------##############&&&&&#-------",
"-----------------------############&&&&&&&&-------",
"------------------------######**@##&&&&&&&&-------",
"-------------------------###@@**@@$&&&OOOO&-------",
"--------------------------@@***@@@@$$&&&&&&-------",
"-------------------------@****@@@@@@$$$##---------",
"------------------------@***@@@@@@@@@###----------",
"----------------------@@***@@@@@@@@@@#------------"
};
