/* XPM */
static char *EnemyRun05[] = {
/* columns rows colors chars-per-pixel */
"50 50 12 1 ",
"  c black",
". c #880015",
"X c #ED1C24",
"o c #FF7F27",
"O c #B97A57",
"+ c #FFF200",
"@ c #3F48CC",
"# c #A349A4",
"$ c #E378C5",
"% c #FFAEC9",
"& c #99D9EA",
"* c None",
/* pixels */
"**************************************************",
"**************************************************",
"**************************ooo*********************",
"*********************ooooo+++o********************",
"********************o+++oo++++o*******************",
"***********  ******o++++o+o+++ooooo******  *******",
"*********** X  **ooooo+o+++o+o+o+++o***  X *******",
"*********** XXX  +o+++oo+++oo++o++++o  XXX *******",
"*********** X..XX  ++++oo++o+++o+++  XX..X *******",
"*********** X...XXX  ++oo+  +++o+  XXX...X *******",
"*********** X.X..XXXX  o+ XX ++  XXXX..X.X *******",
"*********** X.XX..XX.XX  XXXX  X.XXX..XX.X *******",
"*********** X.XXX..XX.XX      X.XX...XXX.X *******",
"*********** X.XXX..XX.XX .... X.XX...XXX.X *******",
"*********** X.XX..XX.XX   XX   X.XXX..XX.X *%%%%%%",
"*********** X.X..XXXX  o+o  o+o  XXXX..X.X %%OOOO%",
"**********o X...XXX  o+++ooo+++o+  XXX...X %%%%%%%",
"**********o X..XX  ++++oooo+oo++o++  XX..X %%%%%%%",
"**********o XXX  o+++++o+oo++o++ooooo  XXX *%%%%%*",
"**********o X  +ooo+++o++o++++o+o++o+++  X *@@@@@*",
"***********  oooo+o+++o+o+o+++oooooo+oo++  o@&&&@*",
"**********ooooooo++ooooo+++o+oo+oo++o+++++o+o@&&@*",
"*********o++o++++o+o+++o++++oooooo++oo+++o++o@&&@*",
"*********o++o++ooooo+++oo++ooo++++o+o+o+o+++o@&&@*",
"*********o++ooo++o+oo+++oooo+++++++oooooo+++o@&&@*",
"*********o++o++++o+o+o+o++o+o++++++o+ooo+ooo@@&&@*",
"**********oo+o+oo+o+++o+++o++o++++o++++oooo*@@&&@*",
"***********oooo++oo++oo+++o+++o++o+++++o+++o@@&&@*",
"*********@@o+++oo++++oo+++o+++o++o+++++o+++o@@&@@*",
"********@@@o+++++++++oo+++o+++o++o++++o++++o&&@@**",
"*******@@&&&o++++++++o+++++o++o++o++++o++++o@@@***",
"******@@&@@@@oo++++oo#o+++++oo++++o++o++++o@@@****",
"******@&&@@@@@@oooo####o++++ooo++++oo++++o********",
"******@&&@@****#########oooo###oooo#ooooo*********",
"******@&&@@***##########################**********",
"******@&&@@***##########################**********",
"******@&&@@***##########################**********",
"******@&&@@***###########################*********",
"******@&&@@**############################*********",
"******@&&&@**############################*********",
"******@@@@@*##############################********",
"******%%%%%*##############################********",
"*****%%%OO%###$###########$$###########$###*******",
"*****%OOOO@@##$$##########$$##########$$##@@******",
"*****%OOO%@@@##$$########$$$$########$$##@@@******",
"*****%%%%@@&&@##$$######$$##$$######$$##@&&@@*****",
"********@@&@@@@##$$$$$$$$####$$$$$$$$##@@@@&@@****",
"*******@@&@@@@@@##$$$$$$######$$$$$$##@@@@@@&@@***",
"*******@&&&&&&@@@#########@@#########@@@&&&&&&@***",
"******@@@@@@@@@@@@@####@@@@@@@@####@@@@@@@@@@@@@**"
};
