/* XPM */
static char *EnemyRun01[] = {
/* columns rows colors chars-per-pixel */
"50 50 14 1 ",
"  c black",
". c #880015",
"X c #ED1C24",
"o c #FF7F27",
"O c #B97A57",
"+ c #FFF200",
"@ c #3F48CC",
"# c #A349A4",
"$ c #E378C5",
"% c #06FFE3",
"& c #FFAEC9",
"* c #99D9EA",
"= c white",
"- c None",
/* pixels */
"--   --------------ooo----------------------------",
"- XX. ------------o+++ooooo-----------------------",
"  XXX. ----------o++++oo+++o----------------------",
" XXXXX. -----ooooo+++o+o++++o---------------------",
" ..XXXX. ---o+++o+o+o+++o+ooooo-------------------",
" ..XX.XX. -o++++o++oo+++oo+++o+oo-----------------",
" ..XX..XXXo+++++o+++o++oo++++o+++o----------------",
" ..XX...XXooooo+o+++o++oo++++o+++o----------------",
" ..XX....oo++++oo+++o+o+o++++o++++o---------------",
" ..XX...o+o+++++o+++ooo+o+++o+++++o---------------",
" ..XX..o++o++++oooooo+ooooooo+++++o---------------",
" XXXX..o+++o++o++o+oo++oooo++o++ooo---------------",
" XXXX..ooooooo+++oo++ooo&&&& & o+o+o--------------",
"- XX.. o++++oooooo+oo+o&&& & & & &oo--------------",
"- X   o+o+++o+o+o+++oo&&&& # # # &&&--------------",
"--  -o+++o++o++o++oo+o&&&###%%%###&&&-------------",
"-----o++++oooooo++o+o&&&&##%%%%%##&&&&------------",
"-----oooo+++o++o+o++o&&&&&%% ==%%&&&&&&-----------",
"----oo+++oo+oooooo+oo&&&&#%%   %%#&&&&&&----------",
"---o+o+++++o++oo+oo&&&&&&##%%%%%##&&&&&&----------",
"---o++o+++oo++ooooo&&&&&&&##%%%##&&&&&&&&---------",
"---o+++o+o+o+o++o+o&&&&&&&&#####&&&&&&&&&&--------",
"---o+++oooooo+++o+o&&&&&&&&&&&&&&&&&&&&&&&--------",
"----ooo+ooo+o+++o+o&&&&&&&&&&&&&&&&&&XXXX---------",
"-----oooo++++o+o++o&&&&&&&&&&&&&&&&&XX  X---------",
"----o+++o+++++o++oo&&&&&&&&&&&&&&&&&XX  X---------",
"----o+++o+++++o+oo&&&&&&&&&&&&&&&&&&&XXX----------",
"----o++++o++++oo+o#&&&&&&&&&&&&&&&&&&&&-----------",
"----o++++o++++o+oo##&&&&&&&&&&&&&&----------------",
"-----o++++o++o+++o############--------------------",
"------o++++oo++o+o#####@@@#####-------------------",
"-------ooooo@oooo#####@@@@@#####------------------",
"----------@@*#########@**@@#####------------------",
"---------@@*@#########@**@@######---&&&-----------",
"---------@**##########@**@@####$#---&&&-----------",
"---------@**##########@@*@@@@@@@@@@&&&&&----------",
"---------@**##########@@*@@@@@@@@*@&&&O&----------",
"---------@*############@@*********@&&&O&----------",
"---------@##############@@********@&&&O&----------",
"---------################@@@@@@@@@@&&&O&----------",
"---------####################-------&&&&----------",
"--------####################----------------------",
"--------####################----------------------",
"--------#$$#################----------------------",
"--------##$$#####**@#######-----------------------",
"---------#$$###@@**@@#####------------------------",
"---------##$$@@***@@@@###-------------------------",
"----------##@****@@@@@@#--------------------------",
"-----------@***@@@@@@@@@--------------------------",
"---------@@***@@@@@@@@@@--------------------------"
};
