/* XPM */
static char *EnemyRun06[] = {
/* columns rows colors chars-per-pixel */
"50 50 12 1 ",
"  c black",
". c #880015",
"X c #ED1C24",
"o c #FF7F27",
"O c #B97A57",
"+ c #FFF200",
"@ c #3F48CC",
"# c #A349A4",
"$ c #E378C5",
"% c #FFAEC9",
"& c #99D9EA",
"* c None",
/* pixels */
"*********************ooo**************************",
"********************o+++ooooo*********************",
"*******************o++++oo+++o********************",
"*******  ******ooooo+++o+o++++o******  ***********",
"******* X  ***o+++o+o+o+++o+ooooo**  X ***********",
"******* XXX  o++++o++oo+++oo+++o+  XXX ***********",
"******* X..XX  +++o+++o++oo++++  XX..X ***********",
"******* X...XXX  +o+++  +oo++  XXX...X ***********",
"******* X.X..XXXX  ++ XX +o  XXXX..X.X ***********",
"******* X.XX..XXX.X  XXXX  XX.XX..XX.X ***********",
"******* X.XXX...XX.X      XX.XX..XXX.X ***********",
"******* X.XXX...XX.X .... XX.XX..XXX.X ***********",
"%%%%%%* X.XX..XXX.X   XX   XX.XX..XX.X ***********",
"%OOOO%% X.X..XXXX  o+o  o+o  XXXX..X.X ***********",
"%%%%%%% X...XXX  +o+++ooo+++o  XXX...X o**********",
"%%%%%%% X..XX  ++o++oo+oooo++++  XX..X o**********",
"*%%%%%* XXX  ooooo++o++oo+o+++++o  XXX o**********",
"*@@@@@* X  +++o++o+o++++o++o+++ooo+  X o**********",
"*@&&&@o  ++oo+oooooo+++o+o+o+++o+oooo  ***********",
"*@&&@o+o+++++o++oo+oo+o+++ooooo++ooooooo**********",
"*@&&@o++o+++oo++oooooo++++o+++o+o++++o++o*********",
"*@&&@o+++o+o+o+o++++ooo++oo+++ooooo++o++o*********",
"*@&&@o+++oooooo+++++++oooo+++oo+o++ooo++o*********",
"*@&&@@ooo+ooo+o++++++o+o++o+o+o+o++++o++o*********",
"*@&&@@*oooo++++o++++o++o+++o+++o+oo+o+oo**********",
"*@&&@@o+++o+++++o++o+++o+++oo++oo++oooo***********",
"*@@&@@o+++o+++++o++o+++o+++oo++++oo+++o@@*********",
"**@@&&o++++o++++o++o+++o+++oo+++++++++o@@@********",
"***@@@o++++o++++o++o++o+++++o++++++++o&&&@@*******",
"****@@@o++++o++o++++oo+++++o#oo++++oo@@@@&@@******",
"********o++++oo++++ooo++++o####oooo@@@@@@&&@******",
"*********ooooo#oooo###oooo#########****@@&&@******",
"**********##########################***@@&&@******",
"**********##########################***@@&&@******",
"**********##########################***@@&&@******",
"*********###########################***@@&&@******",
"*********############################**@@&&@******",
"*********############################**@&&&@******",
"********##############################*@@@@@******",
"********##############################*%%%%%******",
"*******###$###########$$###########$###%OO%%%*****",
"******@@##$$##########$$##########$$##@@OOOO%*****",
"******@@@##$$########$$$$########$$##@@@%OOO%*****",
"*****@@&&@##$$######$$##$$######$$##@&&@@%%%%*****",
"****@@&@@@@##$$$$$$$$####$$$$$$$$##@@@@&@@********",
"***@@&@@@@@@##$$$$$$######$$$$$$##@@@@@@&@@*******",
"***@&&&&&&@@@#########@@#########@@@&&&&&&@*******",
"**@@@@@@@@@@@@@####@@@@@@@@####@@@@@@@@@@@@@******",
"**************************************************",
"**************************************************"
};
