/* XPM */
static char *ExitEnd[] = {
/* columns rows colors chars-per-pixel */
"50 50 8 1 ",
"  c None",
". c #58135E",
"X c gray34",
"o c #4A607D",
"O c #ED1C24",
"+ c #31C43B",
"@ c #FFC90E",
"# c white",
/* pixels */
"OOOOOOOOOOOOOOOOOOOOOOOOOOOOOOOOOOOOOOOOOOOOOOOOOO",
"O++++++++++++++++++++++++++++++++++++++++++++++++O",
"O++++++++++++++++++++++++++++++++++++++++++++++++O",
"O++++++++++++++++++++++++++++++++++++++++++++++++O",
"OOOOOOOO++OOOOOOOOOOOOOOOOOOOOOOOOOOOOOO++OOOOOOOO",
"       O++O                            O++O       ",
"       O++O                            O++O       ",
"    OOOOOOOOOOOOOOOOOOOOOOOOOOOOOOOOOOOOOOOOOO    ",
"    O++++++++++++++++++++++++++++++++++++++++O    ",
"    O++++++++++++++++++++++++++++++++++++++++O    ",
"    OOOOOOOOOOOOOOOOOOOOOOOOOOOOOOOOOOOOOOOOOO    ",
"       O++OXX.....oooooooooooooo......XO++O       ",
"       O++OXXXXX..................XXXXXO++O       ",
"       O++Oo.XXXXXXXXXXXXXXXXXXXXXXXX.oO++O       ",
"       O++Oo...XXXXXXXXXXXXXXXXXXXX...oO++O       ",
"       O++Ooo...XX@@@@@@@@@@@@@@XX....oO++O       ",
"       O++Ooo...XX###@@@@@@@@@@@XX...ooO++O       ",
"       O++Ooo...XX#######@@@@@@@XX...ooO++O       ",
"       O++Oooo..XX#########@@@@@XX...ooO++O       ",
"       O++Oooo..XX##########@@@@XX..oooO++O       ",
"       O++Oooo..XX###########@@@XX..oooO++O       ",
"       O++Oooo..XX###########@@@XX..oooO++O       ",
"       O++Oooo..XX###########@@@XX..oooO++O       ",
"       O++Oooo..XX############@@XX..oooO++O       ",
"       O++Oooo..XX############@@XX..oooO++O       ",
"       O++Oooo..XX############@@XX..oooO++O       ",
"       O++Oooo..XX############@@XX..oooO++O       ",
"       O++Oooo..XX############@@XX..oooO++O       ",
"       O++Oooo..XX############@@XX..oooO++O       ",
"       O++Oooo..XX#############@XX..oooO++O       ",
"       O++Oooo..XX#############@XX...ooO++O       ",
"       O++Ooo...XX#############@XX...ooO++O       ",
"       O++Ooo...XX#############@XX...ooO++O       ",
"       O++Ooo...XXXXXXXXXXXXXXXXXX...ooO++O       ",
"       O++Oo..XXXX     XXXX     XXXX..oO++O       ",
"       O++Oo..XXX    XXXXXXXX    XXX..oO++O       ",
"       O++OoXXX    XXXXXXXXXXXX    XXXoO++O       ",
"       O++OoXXX   XXXXXXXXXXXXXX   XXXoO++O       ",
"       O++OXXX                      XXXO++O       ",
"       O++OXX                        XXO++O       ",
"       O++OXX     XXXXXXXXXXXXXX     XXO++O       ",
"      XO++O    XXXXXXXXXXXXXXXXXXXX    O++OX      ",
"     XXO++O  XXXXXXXXXXXXXXXXXXXXXXXX  O++OXX     ",
"   XXXXO++O  XXXXXXXXXXXXXXXXXXXXXXXX  O++OXXXX   ",
"  XXXXXO++O                            O++OXXXXX  ",
" XXXXX OOOOXXXXXXXXXXXXXXXXXXXXXXXXXXXXOOOO XXXXX ",
"XXXXX  XXXXXXXXXXXXXXXXXXXXXXXXXXXXXXXXXXXX  XXXXX",
"XXXX    XXXXXXXXXXXXXXXXXXXXXXXXXXXXXXXXXX    XXXX",
" XX     XXXXXXXXXXXXXXXXXXXXXXXXXXXXXXXXXX     XX ",
"XX      XXXXXXXXXXXXXXXXXXXXXXXXXXXXXXXXXX      XX"
};
