/* XPM */
static char *PlayerRun03[] = {
/* columns rows colors chars-per-pixel */
"50 50 17 1 ",
"  c black",
". c gray50",
"X c #880015",
"o c #ED1C24",
"O c #B97A57",
"+ c #22B14C",
"@ c #FFF200",
"# c #3A47C7",
"$ c #3F44CB",
"% c #3F48CC",
"& c #00A2E8",
"* c #FFAEC9",
"= c #C8BFE7",
"- c #99D9EA",
"; c #C3C3C3",
": c white",
"> c None",
/* pixels */
">>>>>>>>>>>>>>>>>>>>>>>>>>>>>>>>>>>>>>>>>>>>>>>>>>",
">>>>>>>>>>>>>>>+@>>>+@>>>>>>>+@>>>>>>>>>>>>>>>>>>>",
">>>>>>>>>>>>>>>+@@>>++@@>>>>++@>>>>>>>>>>>>>>>>>>>",
">>>>>>>>>>>>>>>++@@@>++@@>++++@>>>>>>>>>>>>>>>>>>>",
">>>>>>>>>>>>>>**+++@@++++@+++@+>>+@>>>>>>>>>>>>>>>",
">>>>>>>>>>******@+++++++++@+@+>++@@>>>>>>>>>>>>>>>",
">>>>>>>>******&&&+++@@+++++++@+++@>>>>>>>>>>>>>>>>",
">>>>>>>******& ::&&**@++@+++++++@+>>>>>>>>>>>>>>>>",
">>>>>>>******&  :&&****+@++++++@+>>>>>>>>>>>>>>>>>",
">>>>>>>******OO&&&******+@+++++@>XX>>>>>>>>>>>>>>>",
">>>>>>>>******OOO********++++++@+XoX>>>>>>>>>>>>>>",
">>>>>>>>>>******OOO******+@++++XoooX>>>>>>>>>>>>>>",
">>>>>>>>>>>>>>***********@@@++XooXooX>>>>>>>>>>>>>",
">>>>>>>>>>>>>>>>>>>>%%----+@+XooXXXooX>>>>>>>>>>>>",
">>>>>>>>>***>>>>>>>%%%%%%-XXXooXX>XXoX******;=>>>>",
">>>>>>>>>*O*>>>>>>>%%%%%%-XoooXX%>>XXo****O>>>>>>>",
">>>>>>>**=.*X>>>>>>%%%%%%%XXooX-%%>>Xo*******;=>>>",
">>>>>>>OO;O**X>>>>>%%%%%%%XXoX--%%%%>X****O>>>>>>>",
">>>>>>>**;=**oX>>>>%%%%%%%%XXX-----%>>******;=>>>>",
">>>>>>>OOOO*XoXX>>>%%%%%%%%%%%%%%--%>>***>>>>>>>>>",
">>>>>>>**;=*XXoXX>XX%%%%%%%%%%%%%--%>>>****>>>>>>>",
">>>>>>>>>>>>>XooXXXoo%%%%%%%%%%%%--%>>>>*;=>>>>>>>",
">>>>>>>>>>>>>>XooXooXX%%%%%%%%%%%--$>>>>>>>>>>>>>>",
">>>>>>>>>>>>>>>XoooX>>>#%%%%%%%%--%%>>>>>>>>>>>>>>",
">>>>>>>>>>>>>>>XoXX>>>>>%%%%%%%--%%>>>>>>>>>>>>>>>",
">>>>>>>>>>>>>>>>XX>>>>>>%%%%%%%--%>>>>>>>>>>>>>>>>",
">>>>>>>>>>>>>>>>>>>>>>>%%%%%%---%%>>>>>>>>>>>>>>>>",
">>>>>>>>>>>>>>>>>>>>>>%%%%%%%--%%>>>>>>>>>>>>>****",
">>>>>>>>>>>>>>>>>>>>>%%%%%%---%>>>>>>>>>>>>>X*****",
">>>>>>>>>>>>>>>>>>>>>%%%%%---%%>>>>>>>>>>>>Xo*OO**",
">>>>>>>>>>>>>>>>>>>>%%%%%%--%%>>>>>>>>>>>>Xoo**OO*",
">>>>>>>>>>>>>>>>>>>%%%%%%%--%>>>>>>>>>>>XXooX***O*",
">>>>>>>>>>>>>>>>>>>%%%%%%%--%%>>>>>>>>XXXooX>>****",
">>>>>>>>>>>>>>>>>>>%%%%%%%--XXXX>>>>XXXoooX>>>****",
">>>>>>>>>>>>>>>>>>>>%%%%%%%XXXXXXXXXXoooXX>>>>****",
">>>>>>>>>>>>>>>>>>>>OO%%%%XXXXXXXXooooooX>>>>>****",
">>>>>>>>>>>>>>>>>>>XOOO%%XXXXooooooooXXX>>>>>>>***",
">>>>>>>>>>>>>>>>XXXoO*OO%XXooooXXXXXX>>>>>>>>>>;;*",
">>>>>>>>>>>>>>>Xoooo***O%%XXooXX>>>>>>>>>>>>>>>;;*",
">>>>>>>>>>>>>>XXoooX****%%%XXXX>>>>>>>>>>>>>>>>***",
">>>>>>>>>>>>>XoooXXX**XXX%%%%>>>>>>>>>>>>>>>>>>>>>",
">>>>>>>>>>>>XooXXX>>**>>>>>>>>>>>>>>>>>>>>>>>>>>>>",
">>>>>>>>>>>XooXX>>>>**>>>>>>>>>>>>>>>>>>>>>>>>>>>>",
">>>>>>>>>>XooX>>>>>>>>>>>>>>>>>>>>>>>>>>>>>>>>>>>>",
">>>>>>>>>>XoX>>>>>>>>>>>>>>>>>>>>>>>>>>>>>>>>>>>>>",
">>>>>>>>>****>>>>>>>>>>>>>>>>>>>>>>>>>>>>>>>>>>>>>",
">>>>>*****OOO*>>>>>>>>>>>>>>>>>>>>>>>>>>>>>>>>>>>>",
">==;******OOO*>>>>>>>>>>>>>>>>>>>>>>>>>>>>>>>>>>>>",
">;;;****OOO***>>>>>>>>>>>>>>>>>>>>>>>>>>>>>>>>>>>>",
">*************>>>>>>>>>>>>>>>>>>>>>>>>>>>>>>>>>>>>"
};
