/* XPM */
static char *PlayerRun04[] = {
/* columns rows colors chars-per-pixel */
"50 50 17 1 ",
"  c black",
". c gray50",
"X c #880015",
"o c #ED1C24",
"O c #B97A57",
"+ c #22B14C",
"@ c #FFF200",
"# c #3847C7",
"$ c #3F48CC",
"% c #444DCD",
"& c #00A2E8",
"* c #FFAEC9",
"= c #C8BFE7",
"- c #99D9EA",
"; c #C3C3C3",
": c white",
"> c None",
/* pixels */
">>>>>>>>>>>>>>>>>>>>>>>>>>>>>>>>>>>>>>>>>>>>>>>>>>",
">>>>>>>>>>>>>>+@@>>++@@>>>>++@>>>>>>>>>>>>>>>>>>>>",
">>>>>>>>>>>>>>++@@@>++@@>++++@>>>>>>>>>>>>>>>>>>>>",
">>>>>>>>>>>>>**+++@@++++@+++@+>>+@>>>>>>>>>>>>>>>>",
">>>>>>>>>******@+++++++++@+@+>++@@>>>>>>>>>>>>>>>>",
">>>>>>>******&&&+++@@+++++++@+++@>>>>>>>>>>>>>>>>>",
">>>>>>******& ::&&**@++@+++++++@+>>>>>>>>>>>>>>>>>",
">>>>>>******&  :&&****+@++++++@+>>>>>>>>>>>>>>>>>>",
">>>>>>******OO&&&******+@+++++@>>XX>>>>>>>>>>>>>>>",
">>>>>>>******OOO********++++++@+XXoX>>>>>>>>>>>>>>",
">>>>>>>>>******OOO******+@+++++@+ooX>>>>>>>>>>>>>>",
">>>>>>>>>>>>>***********@@@+++@+@@ooX>>>>>>>>>>>>>",
">>>>>>>>>>>>>>>>>>>$$----+@++@o+++@ooX>>>>>>>>>>>>",
">>>>>>>>=;*>>>>>>>$$$$$$--$$+@oXX>+XoX>*=;**>>>>>>",
">>>>>>>>****>>>>>>$$$$$$-----$$$>>>XXoX*OOOO>>>>>>",
">>>>>>>>>>***>>>>>$$$$$$$$$----$$>>>Xoo*=;**>>>>>>",
">>>>>=;******X>>>>$$$XXX$$$$$--$$$$>>Xo*O;OO>>>>>>",
">>>>>>>>O****XX>>>$$$XoXX$$$$-----$>>XX*.=**>>>>>>",
">>>>=;*******oX>>>$$XooXX$$$$$$$--$>>>X*O*>>>>>>>>",
">>>>>>>>O****oXX>>>XXoooX$$$$$$$--$>>>>***>>>>>>>>",
">>>>>=;******XoXX>XXooXXX$$$$$$$--$>>>>>>>>>>>>>>>",
">>>>>>>>>>>>>XooXXXooXX$$$$$$$$$--%>>>>>>>>>>>>>>>",
">>>>>>>>>>>>>>XooXooX>#$$$$$$$$--$>>>>>>>>>>>>>>>>",
">>>>>>>>>>>>>>>XoooX>>>$$$$$$$--$$>>>>>>>>>>>>>>>>",
">>>>>>>>>>>>>>>XoXX>>>>>>$$$$$$---$>>>>>>>>>>>>>>>",
">>>>>>>>>>>>>>>>XX>>>>>>>$$$$$$$--$$>>>>>>>>>>>>>>",
">>>>>>>>>***>>>>>>>>>>>>>>$$XXXX$--$$>>>>>>>>>>>>>",
">>>>>>>>>*;;>>>>>>>>>>>>>>>XXooXX$--$X>>>>>>>>>>>>",
">>>>>>>>>*;;>>>>>>>>>>XXXXXXooooXX--$XX>>>>>>>>>>>",
">>>>>>>>>***>>>>>>>XXXooooooooXXXX-$$XX>>>>>>>>>>>",
">>>>>>>>>****>>>>>XooooooXXXXXXXX--$XXX>>>>>>>>>>>",
">>>>>>>>>****>>>>XXoooXXXXXXXXXX--$$XXX>>>>>>>>>>>",
">>>>>>>>>****>>>XoooXXX>>>*XXXX$$$$oXX>>>>>>>>>>>>",
">>>>>>>>>****>>XooXXX>>>>>**>>>>>>XoXX>>>>>>>>>>>>",
">>>>>>>>>*O***XooXX>>>>>>>**>>>>>>XooX>>>>>>>>>>>>",
">>>>>>>>>*OO**ooX>>>>>>>>>>>>>>>>>XooX>>>>>>>>>>>>",
">>>>>>>>>**OO*oX>>>>>>>>>>>>>>>>>>XooXX>>>>>>>>>>>",
">>>>>>>>>*****X>>>>>>>>>>>>>>>>>>>>XooX>>>>>>>>>>>",
">>>>>>>>>****>>>>>>>>>>>>>>>>>>>>>>XooXX>>>>>>>>>>",
">>>>>>>>>>>>>>>>>>>>>>>>>>>>>>>>>>>XoooX>>>>>>>>>>",
">>>>>>>>>>>>>>>>>>>>>>>>>>>>>>>>>>>>XXoXX>>>>>>>>>",
">>>>>>>>>>>>>>>>>>>>>>>>>>>>>>>>>>>>>XooX>>>>>>>>>",
">>>>>>>>>>>>>>>>>>>>>>>>>>>>>>>>>>>>>>XooX>>>>>>>>",
">>>>>>>>>>>>>>>>>>>>>>>>>>>>>>>>>>>>>>>XooX>>>>>>>",
">>>>>>>>>>>>>>>>>>>>>>>>>>>>>>>>>>>>>>>>XooX>>>>>>",
">>>>>>>>>>>>>>>>>>>>>>>>>>>>>>>>>>>>>>>>****>>>>>>",
">>>>>>>>>>>>>>>>>>>>>>>>>>>>>>>>>>>>*****OOO*>>>>>",
">>>>>>>>>>>>>>>>>>>>>>>>>>>>>>>>==;******OOO*>>>>>",
">>>>>>>>>>>>>>>>>>>>>>>>>>>>>>>>;;;****OOO***>>>>>",
">>>>>>>>>>>>>>>>>>>>>>>>>>>>>>>>*************>>>>>"
};
