/* XPM */
static char *PlayerRun06[] = {
/* columns rows colors chars-per-pixel */
"50 50 10 1 ",
"  c #880015",
". c #ED1C24",
"X c #B97A57",
"o c #22B14C",
"O c #FFF200",
"+ c #3F48CC",
"@ c #FFAEC9",
"# c #99D9EA",
"$ c #C3C3C3",
"% c None",
/* pixels */
"%%%%%%%%%%%%%%%%%%%%%%%%%%%%%%%%%%%%%%%%%%%%%%%%%%",
"%%%%%%%%%%%%$%%%%%%%%%%%%%%%oO%%%oO%%%%%%%%%%%%%%%",
"%%%%%%%%%%$%$%$%%%%%%%%%%oO%ooO%%oO%%%%%%%%%%%%%%%",
"%%%%%%%%%%$%@%$%%%%%%%%O%ooOOooOooO%%o%%%%%%%%%%%%",
"%%%%%%%%%%@%@%@%%%%%oO%oO%ooOoOooOO%oO%%%%%%%%%%%%",
"%%%%%%%%%%@X@X@%@$%%ooOooOoOooOoOOoOoO%%%%%%%%%%%%",
"%%%%%%%%%%@@@@@%@$%%%ooooooOooOoOooOOo%%%%%%%%%%%%",
"%%%%%%%%%%@@@@@@@@%%%oooOooooOOoooOoO%%%%%%%%%%%%%",
"%%%%%%%%%%@@@@@@@%%%%%oOOOOooOooooOOo%o%%%%%%%%%%%",
"%%%%%%%%%%%@@@@@%%%%OOooooOooooooooOooO%%%%%%%%%%%",
"%%%%%%%%%%%% . %%%%OoooOoooooOooooooooO%%%%%%%%%%%",
"%%%%%%%%%%%% . %%%%ooOOOOoOooOOoooOOOO%%%%%%%%%%%%",
"%%%%%%%%%%%% .  %%%%%%oooOOoooOoOoOO+%%%%%%%%%%%%%",
"%%%%%%%%%%%%  . %%%%%++ooOoooOOoOooO++%%%%%%%%%%%%",
"%%%%%%%%%%%%% . %%%%+++OOooooOOoOooOO+++%%%%%%%%%%",
"%%%%%%%%%%%%% . %% +++OOo+ooOOooO+ooO#+++  %%%%%%%",
"%%%%%%%%%%%%% .    ++#Ooo++oO++oO++oo##++   %%%%%%",
"%%%%%%%%%%%%%  .   +##Oo+++oo++oo++++###+..  %%%%%",
"%%%%%%%%%%%%%%  .  +##++++++++++++++++##+  .  %%%%",
"%%%%%%%%%%%%%%%  ..+##+++++#####++++++##+   .  %%%",
"%%%%%%%%%%%%%%%%   +#+++++#######++++++#+    . %%%",
"%%%%%%%%%%%%%%%%%  +#+++++##+++##++++++#+ %% . %%%",
"%%%%%%%%%%%%%%%%%%%+++++++#+++++#++++++++%%% . %%%",
"%%%%%%%%%%%%%%%%%%%%++++++++++++++++++++%%%% .  %%",
"%%%%%%%%%%%%%%%%%%%%+++++++++++++++++++%%%%%  . %%",
"%%%%%%%%%%%%%%%%%%%%%+++++++###+++++++%%%%%%% . %%",
"%%%%%%%%%%%%%%%%%%%%%%+++++##+##+++++%%%%%%%% . %%",
"%%%%%%%%%%%%%%%%%%%%%%%++++#+++#++++%%%%%%%%@@@@@%",
"%%%%%%%%%%%%%%%%%%%%%%%%+++++++++++%%%%%%%%@@@@@@@",
"%%%%%%%%%%%%%%%%%%%%%%%%%+++++++++%%%%%%%%@@@@XX@@",
"%%%%%%%%%%%%%%%%%%%%%%%%%+++++++++%%%%%%%%@@@XXXX@",
"%%%%%%%%%%%%%%%%%%%%%%%%%+++###+++%%%%%%%%@@%@@@@@",
"%%%%%%%%%%%%%%%%%%%%%%%%%+++#+#+++%%%%%%%%%%%@X@X@",
"%%%%%%%%%%%%%%%%%%%%%%%%+++++++++++%%%%%%%%%%@%@%@",
"%%%%%%%%%%%%%%%%%%%%%%%++++++++++++@@@@%%%%%%@%@%@",
"%%%%%%%%%%%%%%%%%%%%%%++++##+++##+@@@X@@%%%%%%%@%%",
"%%%%%%%%%%%%%%%%%%%%  +++++##+##++@@XX@@%%%%%%%%%%",
"%%%%%%%%%%%%%%%%%%   ..+++++###++++@@@@@@%%%%%%%%%",
"%%%%%%%%%%%%%%%%%  .....+++++#++++..@@@@@%%%%%%%%%",
"%%%%%%%%%%%%%%%%% ...    ++++#+++  .@@@@@@%%%%%%%%",
"%%%%%%%%%%%%%%%%  .       ++#+#++  .@@@XX@%%%%%%%%",
"%%%%%%%%%%%%%%%  ..  %%%%%@@XXX@@%%@XXXXX@@%%%%%%%",
"%%%%%%%%%%%%%%% ..  %%%%%%%%XXX%%%@XXXX@@@@%%%%%%%",
"%%%%%%%%%%%%%%% .   %%%%%%%%@@@%%%@@@@@@@@@%%%%%%%",
"%%%%%%%%%%%%%%% .   %%%%%%%%@@@%%%@@@%@@%@@%%%%%%%",
"%%%%%%%%%%%%%% ..  %%%%%%%%%%%%%%%@@@%@@%%%%%%%%%%",
"%%%%%%%%%%%%%% .   %%%%%%%%%%%%%%%@@@%%%%%%%%%%%%%",
"%%%%%%%%%%%%%@@@XX@@%%%%%%%%%%%%%%%%%%%%%%%%%%%%%%",
"%%%%%%%%%%%%@XXXXXX@%%%%%%%%%%%%%%%%%%%%%%%%%%%%%%",
"%%%%%%%%%%%%@XX@@@X@%%%%%%%%%%%%%%%%%%%%%%%%%%%%%%"
};
