/* XPM */
static char *PlayerStop00[] = {
/* columns rows colors chars-per-pixel */
"50 50 14 1 ",
"  c black",
". c #880015",
"X c #ED1C24",
"o c #B97A57",
"O c #22B14C",
"+ c #FFF200",
"@ c #3F48CC",
"# c #00A2E8",
"$ c #FFAEC9",
"% c #C8BFE7",
"& c #99D9EA",
"* c #C3C3C3",
"= c white",
"- c None",
/* pixels */
"--------------------------------------------------",
"-------------------+----+-------------------------",
"-------------------+O--+O--+----------------------",
"-------------------+OO+OO++O--+-------------------",
"----------------+--+OOOOOOOO-+O-+-----------------",
"----------------+O+OOO$$$$$O+OO+O-----------------",
"----------------O+OOO$$$$$$$OOOOO-----------------",
"-----------------+O+$$$$$$$$$+OO------------------",
"-----------------O+$OOOO$OOOO$+O------------------",
"---------------+OOO$OOOO$OOOO$OO++----------------",
"---------------+OO$$#==#$#==#$$OOO+---------------",
"----------------++$$#  #$#  #$$++O----------------",
"-----------------@$$###o$o###$$@------------------",
"----------------@@$$$$oo$oo$$$$@@-----------------",
"--------------@@@@$$$oo$$$oo$$$@@@----------------",
"-----------..@@@@@$$oo$$$$$oo$$@@@@..-------------",
"----------...@&@@@$$$$$$$$$$$$$@@&@...------------",
"---------..XX@&@@@@$$$$$$$$$$$@@@&@XX..-----------",
"--------..X..@&@@@@$$$$$$$$$$$@@@&@..X..----------",
"-------..X...@&@@@@@$$$$$$$$$@@@@&@...X..---------",
"-------.X....@&@@@@@$$$$$$$$$@@@@&@....X.---------",
"-------.X.--.@&@@@@@@$$$$$$$@@@@@&@.--.X.---------",
"-------.X.---@@&@@@@@@@$$$@@@@@@&@@---.X.---------",
"------..X.----@@&&&&@@@@@@@@&&&&@@----.X..--------",
"------.X..-----@@@@@@@@@@@@@@@@@@@----..X.--------",
"------.X.-------@@@@@@@@@@@@@@@@@------.X.--------",
"------.X.--------@@&&&@@@@@&&&@@-------.X.--------",
"------$$$$$-------@@@&@@@@@&@@@------$$$$$--------",
"-----$$$$$$$-------@@&@@@@@&@@------$$$$$$$-------",
"-----$$$$$$$$-------@&@@@@@&@------$$$$$$$$-------",
"-----$$$$$-$*-------@&@@@@@&@------*$-$$$$$-------",
"-----$o$o$-$%-------@&@@@@@&@------%$-$o$o$-------",
"-----$-$-$----------@&@@@@@&@---------$-$-$-------",
"-----*-$-*---------@@@@&&&@@@@--------*-$-*-------",
"-----%-*-%--------@@@@@&&&@@@@@-------%-*-%-------",
"-------%---------@&@@@@@@@@@@@&@--------%---------",
"----------------..@&@@@@@@@@@@&@..----------------",
"--------------...XX@&@ooooo@@&@XX...--------------",
"-------------..XXXXX@ooooooo&@XXXXX..-------------",
"-------------.XXX....oo$$$oo@....XXX.-------------",
"------------..X......oo$$$oo.......X..------------",
"-----------..XX..----$$$$$$$-----..XX..-----------",
"-----------.XX..-------$$$--------..XX.-----------",
"-----------.X...-------$$$--------...X.-----------",
"-----------.X...-------$$$--------...X.-----------",
"----------.XX..--------------------..XX.----------",
"----------.X..%%------------------%%..X.----------",
"--------%%$%%$**------------------**$%%$%%--------",
"-------$**$**$$$------------------$$$**$**$-------",
"-------$$$$$$$$$------------------$$$$$$$$$-------"
};
