/* XPM */
static char *PlayerRun07[] = {
/* columns rows colors chars-per-pixel */
"50 50 14 1 ",
"  c black",
". c #880015",
"X c #ED1C24",
"o c #B97A57",
"O c #22B14C",
"+ c #FFF200",
"@ c #3F48CC",
"# c #00A2E8",
"$ c #FFAEC9",
"% c #C8BFE7",
"& c #99D9EA",
"* c #C3C3C3",
"= c white",
"- c None",
/* pixels */
"--------------------------------------------------",
"--------------+----+---------------$--------------",
"--------------+O--+O--+----------$-$-$------------",
"--------------+OO+OO++O--+-------$-$-$------------",
"-----------+--+OOOOOOOO-+O-+-----$-$-$------------",
"-----------+O+OOO$$$$$O+OO+O--$$-$o$o$------------",
"-----------O+OOO$$$$$$$OOOOO--$$-$$$$$------------",
"------------+O+$$$$$$$$$+OO---$$$oooo$------------",
"------------O+$OOOO$OOOO$+O----$$$oo$$------------",
"----------+OOO$OOOO$OOOO$OO++---$$$$$-------------",
"----------+OO$$ ==#$ ==#$$OOO+----.X.-------------",
"-----------++$$  =#$  =#$$++O-----.X.-------------",
"------------@$$###o$o###$$@------..X.-------------",
"-----------@@$$$$oo$oo$$$$@@-----.X..-------------",
"---------@@@@$$$oo$$$oo$$$@@@----.X.--------------",
"------..@@@@@$$oo$$$$$oo$$@@@@.--.X.--------------",
"-----...@&@@@$$$$$$$$$$$$$@@&@....X.--------------",
"----..XX@&@@@@$$$$$$$$$$$@@@&@...X..--------------",
"---..X..@&@@@@$$$$$$$$$$$@@@&@..X..---------------",
"--..X...@&@@@@@$$$$$$$$$@@@@&@XX..----------------",
"--.X....@&@@@@@$$$$$$$$$@@@@&@...-----------------",
"--.X.--.@&@@@@@@$$$$$$$@@@@@&@..------------------",
"--.X.---@@&@@@@@@@$$$@@@@@@&@@--------------------",
"-..X.----@@&&&&@@@@@@@@&&&&@@---------------------",
"-.X..-----@@@@@@@@@@@@@@@@@@@---------------------",
"-.X.-------@@@@@@@@@@@@@@@@@----------------------",
"-.X.--------@@&&&@@@@@&&&@@-----------------------",
"-$$$$$-------@@@&@@@@@&@@@------------------------",
"$$$$$$$-------@@&@@@@@&@@-------------------------",
"$$$$$$$$-------@&@@@@@&@--------------------------",
"$$$$$-$*-------@&@@@@@&@--------------------------",
"$o$o$-$%-------@&@@@@@&@--------------------------",
"$-$-$-------$$$@&@@@@@&@--------------------------",
"*-$-*----$$-$$$@@@&&&@@@@-------------------------",
"%-*-%-$$-$$-$$$@@@&&&@@@@@------------------------",
"--%---$$$$$$$$$@@@@@@@@@@&@-----------------------",
"------$$$$oooo$@@@@@@@@@@&@..---------------------",
"------$$ooooo$@&@ooooo@@&@XX...-------------------",
"-------$oo$$$X.@ooooooo&@XXXXX..------------------",
"-------$$$$$$X..oo$$$oo@....XXX.------------------",
"--------$$$$$XX.oo$$$oo.......X..-----------------",
"--------$$$$$$--$$$$$$$-----..XX..----------------",
"---------$$oo$$---$$$--------..XX.----------------",
"---------$$o$$$---$$$--------...X.----------------",
"----------$$$$----$$$--------...X.----------------",
"------------------------------..XX.---------------",
"-----------------------------%%..X.---------------",
"-----------------------------**$%%$%%-------------",
"-----------------------------$$$**$**$------------",
"-----------------------------$$$$$$$$$------------"
};
