/* XPM */
static char *PlayerKill09[] = {
/* columns rows colors chars-per-pixel */
"50 50 11 1 ",
"  c None",
". c #880015",
"X c #ED1C24",
"o c #B97A57",
"O c #22B14C",
"+ c #FFF200",
"@ c #3F48CC",
"# c #00A2E8",
"$ c #FFAEC9",
"% c #99D9EA",
"& c white",
/* pixels */
"                                                  ",
"       $           +    +               $         ",
"     $ $ $         +O  +O  +          $ $ $       ",
"     $ $ $         +OO+OO++O  +       $ $ $       ",
"     $ $ $      +  +OOOOOOOO +O +     $ $ $       ",
"     $o$o$ $$   +O+OOO$$$$$O+OO+O  $$ $o$o$       ",
"     $$$$$ $$   O+OOO$$$$$$$OOOOO  $$ $$$$$       ",
"     $oooo$$$    +O+$$$$$$$$$+OO   $$$oooo$       ",
"     $$oo$$$     O+$OOOO$OOOO$+O    $$$oo$$       ",
"      $$$$$    +OOO$O&&O$O&&O$OO++   $$$$$        ",
"      .X.      +OO$$#&&#$#&&#$$OOO+    .X.        ",
"      .X.       ++$$#&&#$#&&#$$++O     .X.        ",
"      .X..       @$$###o$o###$$@      ..X.        ",
"      ..X.      @@$$$$oo$oo$$$$@@     .X..        ",
"       .X.    @@@@$$$oo$$$oo$$$@@@    .X.         ",
"       .X.  .@@@@@$$oo$$$$$oo$$@@@@.  .X.         ",
"       .X....@%@@@$$$$$$$$$$$$$@@%@....X.         ",
"       ..X...@%@@@@$$$$$$$$$$$@@@%@...X..         ",
"        ..X..@%@@@@$$$$$$$$$$$@@@%@..X..          ",
"         ..XX@%@@@@@$$$$$$$$$@@@@%@XX..           ",
"          ...@%@@@@@$$$$$$$$$@@@@%@...            ",
"           ..@%@@@@@@$$$$$$$@@@@@%@..             ",
"             @@%@@@@@@@$$$@@@@@@%@@               ",
"              @@%%%%@@@@@@@@%%%%@@                ",
"               @@@@@@@@@@@@@@@@@@@                ",
"                @@@@@@@@@@@@@@@@@                 ",
"                 @@%%%@@@@@%%%@@                  ",
"                  @@@%@@@@@%@@@                   ",
"                   @@%@@@@@%@@                    ",
"                    @%@@@@@%@                     ",
"                    @%@@@@@%@                     ",
"                    @%@@@@@%@                     ",
"                 $$$@%@@@@@%@                     ",
"              $$ $$$@@@%%%@@@$$$                  ",
"           $$ $$ $$$@@@%%%@@@$$$ $$               ",
"           $$$$$$$$$@@@@@@@@@$$$ $$ $$            ",
"           $$$$oooo$@@@@@@@@@$$$$$$$$$            ",
"           $$ooooo$@%@ooooo@@$oooo$$$$            ",
"            $oo$$$X.@ooooooo%@$ooooo$$            ",
"            $$$$$$X..oo$$$oo@.X$$$oo$             ",
"             $$$$$XX.oo$$$oo..X$$$$$$             ",
"             $$$$$$  $$$$$$$.XX$$$$$              ",
"              $$oo$$   $$$    $$$$$$              ",
"              $$o$$$   $$$   $$oo$$               ",
"               $$$$    $$$   $$$o$$               ",
"                              $$$$                ",
"                                                  ",
"                                                  ",
"                                                  ",
"                                                  "
};
