/* XPM */
static char *PlayerRun02[] = {
/* columns rows colors chars-per-pixel */
"50 50 17 1 ",
"  c black",
". c gray50",
"X c #880015",
"o c #ED1C24",
"O c #B97A57",
"+ c #22B14C",
"@ c #FFF200",
"# c #3947C7",
"$ c #3F48CC",
"% c #444DCD",
"& c #00A2E8",
"* c #FFAEC9",
"= c #C8BFE7",
"- c #99D9EA",
"; c #C3C3C3",
": c white",
"> c None",
/* pixels */
">>>>>>>>>>>>>>>>>>>>>>>>>>>>>>>>>>>>>>>>>>>>>>>>>>",
">>>>>>>>>>>>>>>>>>>>@++>>>>@@++>>@@+>>>>>>>>>>>>>>",
">>>>>>>>>>>>>>>>>>>>@++++>@@++>@@@++>>>>>>>>>>>>>>",
">>>>>>>>>>>>>>>>@+>>+@+++@++++@@+++**>>>>>>>>>>>>>",
">>>>>>>>>>>>>>>>@@++>+@+@+++++++++@******>>>>>>>>>",
">>>>>>>>>>>>>>>>>@+++@+++++++@@+++&&&******>>>>>>>",
">>>>>>>>>>>>>>>>>+@+++++++@++@**&&:: &******>>>>>>",
">>>>>>>>>>>>>>>>>>+@++++++@+****&&:  &******>>>>>>",
">>>>>>>>>>>>>>>XX>>@+++++@+******&&&OO******>>>>>>",
">>>>>>>>>>>>>>XoXX+@++++++********OOO******>>>>>>>",
">>>>>>>>>>>>>>Xoo+@+++++@+******OOO******>>>>>>>>>",
">>>>>>>>>>>>>Xoo@@+@+++@@@***********>>>>>>>>>>>>>",
">>>>>>>>>>>>Xoo@+++o@++@+----$$>>>>>>>>>>>>>>>>>>>",
">>>>>>**;=*>XoX+>XXo@+$$--$$$$$$>>>>>>>*;=>>>>>>>>",
">>>>>>OOOO*XoXX>>>$$$-----$$$$$$>>>>>>****>>>>>>>>",
">>>>>>**;=*ooX>>>$$----$$$$$$$$$>>>>>***>>>>>>>>>>",
">>>>>>OO;O*oX>>$$$$--$$$$$XXX$$$>>>>X******;=>>>>>",
">>>>>>**=.*XX>>$-----$$$$XXoX$$$>>>XX****O>>>>>>>>",
">>>>>>>>*O*X>>>$--$$$$$$$XXooX$$>>>Xo*******;=>>>>",
">>>>>>>>***>>>>$--$$$$$$$XoooXX>>>XXo****O>>>>>>>>",
">>>>>>>>>>>>>>>$--$$$$$$$XXXooXX>XXoX******;=>>>>>",
">>>>>>>>>>>>>>>%--$$$$$$$$$XXooXXXooX>>>>>>>>>>>>>",
">>>>>>>>>>>>>>>>$--$$$$$$$$#>XooXooX>>>>>>>>>>>>>>",
">>>>>>>>>>>>>>>>$$--$$$$$$$>>>XoooX>>>>>>>>>>>>>>>",
">>>>>>>>>>>>>>>$---$$$$$$>>>>>>XXoX>>>>>>>>>>>>>>>",
">>>>>>>>>>>>>>$$--$$$$$$$>>>>>>>XX>>>>>>>>>>>>>>>>",
">>>>>>>>>>>>>$$--$XXXX$$>>>>>>>>>>>>>>***>>>>>>>>>",
">>>>>>>>>>>>X$--$XXooXX>>>>>>>>>>>>>>>;;*>>>>>>>>>",
">>>>>>>>>>>XX$--XXooooXXXXXX>>>>>>>>>>;;*>>>>>>>>>",
">>>>>>>>>>>XX$$-XXXXooooooooXXX>>>>>>>***>>>>>>>>>",
">>>>>>>>>>>XXX$--XXXXXXXXooooooX>>>>>****>>>>>>>>>",
">>>>>>>>>>>XXX$$--XXXXXXXXXXoooXX>>>>****>>>>>>>>>",
">>>>>>>>>>>>XXo$$$$XXXX*>>>XXXoooX>>>****>>>>>>>>>",
">>>>>>>>>>>>XXoX>>>>>>**>>>>>XXXooX>>****>>>>>>>>>",
">>>>>>>>>>>>XooX>>>>>>**>>>>>>>XXooX***O*>>>>>>>>>",
">>>>>>>>>>>>XooX>>>>>>>>>>>>>>>>>Xoo**OO*>>>>>>>>>",
">>>>>>>>>>>XXooX>>>>>>>>>>>>>>>>>>Xo*OO**>>>>>>>>>",
">>>>>>>>>>>XooX>>>>>>>>>>>>>>>>>>>>X*****>>>>>>>>>",
">>>>>>>>>>XXooX>>>>>>>>>>>>>>>>>>>>>>****>>>>>>>>>",
">>>>>>>>>>XoooX>>>>>>>>>>>>>>>>>>>>>>>>>>>>>>>>>>>",
">>>>>>>>>XXoXX>>>>>>>>>>>>>>>>>>>>>>>>>>>>>>>>>>>>",
">>>>>>>>>XooX>>>>>>>>>>>>>>>>>>>>>>>>>>>>>>>>>>>>>",
">>>>>>>>XooX>>>>>>>>>>>>>>>>>>>>>>>>>>>>>>>>>>>>>>",
">>>>>>>XooX>>>>>>>>>>>>>>>>>>>>>>>>>>>>>>>>>>>>>>>",
">>>>>>XooX>>>>>>>>>>>>>>>>>>>>>>>>>>>>>>>>>>>>>>>>",
">>>>>>****>>>>>>>>>>>>>>>>>>>>>>>>>>>>>>>>>>>>>>>>",
">>>>>*OOO*****>>>>>>>>>>>>>>>>>>>>>>>>>>>>>>>>>>>>",
">>>>>*OOO******;==>>>>>>>>>>>>>>>>>>>>>>>>>>>>>>>>",
">>>>>***OOO****;;;>>>>>>>>>>>>>>>>>>>>>>>>>>>>>>>>",
">>>>>*************>>>>>>>>>>>>>>>>>>>>>>>>>>>>>>>>"
};
