/* XPM */
static char *PlayerRun08[] = {
/* columns rows colors chars-per-pixel */
"50 50 14 1 ",
"  c black",
". c #880015",
"X c #ED1C24",
"o c #B97A57",
"O c #22B14C",
"+ c #FFF200",
"@ c #3F48CC",
"# c #00A2E8",
"$ c #FFAEC9",
"% c #C8BFE7",
"& c #99D9EA",
"* c #C3C3C3",
"= c white",
"- c None",
/* pixels */
"--------------------------------------------------",
"--------------$---------------+----+--------------",
"------------$-$-$----------+--O+--O+--------------",
"------------$-$-$-------+--O++OO+OO+--------------",
"------------$-$-$-----+-O+-OOOOOOOO+--+-----------",
"------------$o$o$-$$--O+OO+O$$$$$OOO+O+-----------",
"------------$$$$$-$$--OOOOO$$$$$$$OOO+O-----------",
"------------$oooo$$$---OO+$$$$$$$$$+O+------------",
"------------$$oo$$$----O+$OOOO$OOOO$+O------------",
"-------------$$$$$---++OO$OOOO$OOOO$OOO+----------",
"-------------.X.----+OOO$$#== $#== $$OO+----------",
"-------------.X.-----O++$$#=  $#=  $$++-----------",
"-------------.X..------@$$###o$o###$$@------------",
"-------------..X.-----@@$$$$oo$oo$$$$@@-----------",
"--------------.X.----@@@$$$oo$$$oo$$$@@@@---------",
"--------------.X.--.@@@@$$oo$$$$$oo$$@@@@@..------",
"--------------.X....@&@@$$$$$$$$$$$$$@@@&@...-----",
"--------------..X...@&@@@$$$$$$$$$$$@@@@&@XX..----",
"---------------..X..@&@@@$$$$$$$$$$$@@@@&@..X..---",
"----------------..XX@&@@@@$$$$$$$$$@@@@@&@...X..--",
"-----------------...@&@@@@$$$$$$$$$@@@@@&@....X.--",
"------------------..@&@@@@@$$$$$$$@@@@@@&@.--.X.--",
"--------------------@@&@@@@@@$$$@@@@@@@&@@---.X.--",
"---------------------@@&&&&@@@@@@@@&&&&@@----.X..-",
"---------------------@@@@@@@@@@@@@@@@@@@-----..X.-",
"----------------------@@@@@@@@@@@@@@@@@-------.X.-",
"-----------------------@@&&&@@@@@&&&@@--------.X.-",
"------------------------@@@&@@@@@&@@@-------$$$$$-",
"-------------------------@@&@@@@@&@@-------$$$$$$$",
"--------------------------@&@@@@@&@-------$$$$$$$$",
"--------------------------@&@@@@@&@-------*$-$$$$$",
"--------------------------@&@@@@@&@-------%$-$o$o$",
"--------------------------@&@@@@@&@$$$-------$-$-$",
"-------------------------@@@@&&&@@@$$$-$$----*-$-*",
"------------------------@@@@@&&&@@@$$$-$$-$$-%-*-%",
"-----------------------@&@@@@@@@@@@$$$$$$$$$---%--",
"---------------------..@&@@@@@@@@@@$oooo$$$$------",
"-------------------...XX@&@@ooooo@&@$ooooo$$------",
"------------------..XXXXX@&ooooooo@.X$$$oo$-------",
"------------------.XXX....@oo$$$oo..X$$$$$$-------",
"-----------------..X.......oo$$$oo.XX$$$$$--------",
"----------------..XX..-----$$$$$$$--$$$$$$--------",
"----------------.XX..--------$$$---$$oo$$---------",
"----------------.X...--------$$$---$$$o$$---------",
"----------------.X...--------$$$----$$$$----------",
"---------------.XX..------------------------------",
"---------------.X..%%-----------------------------",
"-------------%%$%%$**-----------------------------",
"------------$**$**$$$-----------------------------",
"------------$$$$$$$$$-----------------------------"
};
