/* XPM */
static char *PlayerRun05[] = {
/* columns rows colors chars-per-pixel */
"50 50 10 1 ",
"  c #880015",
". c #ED1C24",
"X c #B97A57",
"o c #22B14C",
"O c #FFF200",
"+ c #3F48CC",
"@ c #FFAEC9",
"# c #99D9EA",
"$ c #C3C3C3",
"% c None",
/* pixels */
"%%%%%%%%%%%%%%%%%%%%%%%%%%%%%%%%%%%%%%%%%%%%%%%%%%",
"%%%%%%%%%%%%%%%Oo%%%Oo%%%%%%%%%%%%%%%$%%%%%%%%%%%%",
"%%%%%%%%%%%%%%%Oo%%Ooo%Oo%%%%%%%%%%$%$%$%%%%%%%%%%",
"%%%%%%%%%%%%o%%OooOooOOoo%O%%%%%%%%$%@%$%%%%%%%%%%",
"%%%%%%%%%%%%Oo%OOooOoOoo%Oo%Oo%%%%%@%@%@%%%%%%%%%%",
"%%%%%%%%%%%%OoOoOOoOooOoOooOoo%%$@%@X@X@%%%%%%%%%%",
"%%%%%%%%%%%%oOOooOoOooOoooooo%%%$@%@@@@@%%%%%%%%%%",
"%%%%%%%%%%%%%OoOoooOOooooOooo%%%@@@@@@@@%%%%%%%%%%",
"%%%%%%%%%%%o%oOOooooOooOOOOo%%%%%@@@@@@@%%%%%%%%%%",
"%%%%%%%%%%%OooOooooooooOooooOO%%%%@@@@@%%%%%%%%%%%",
"%%%%%%%%%%%OooooooooOoooooOoooO%%%% . %%%%%%%%%%%%",
"%%%%%%%%%%%%OOOOoooOOooOoOOOOoo%%%% . %%%%%%%%%%%%",
"%%%%%%%%%%%%%+OOoOoOoooOOooo%%%%%%  . %%%%%%%%%%%%",
"%%%%%%%%%%%%++OooOoOOoooOoo++%%%%% .  %%%%%%%%%%%%",
"%%%%%%%%%%+++OOooOoOOooooOO+++%%%% . %%%%%%%%%%%%%",
"%%%%%%%  +++#Ooo+OooOOoo+oOO+++ %% . %%%%%%%%%%%%%",
"%%%%%%   ++##oo++Oo++Oo++ooO#++    . %%%%%%%%%%%%%",
"%%%%%  ..+###++++oo++oo+++oO##+   .  %%%%%%%%%%%%%",
"%%%%  .  +##++++++++++++++++##+  .  %%%%%%%%%%%%%%",
"%%%  .   +##++++++#####+++++##+..  %%%%%%%%%%%%%%%",
"%%% .    +#++++++#######+++++#+   %%%%%%%%%%%%%%%%",
"%%% . %% +#++++++##+++##+++++#+  %%%%%%%%%%%%%%%%%",
"%%% . %%%++++++++#+++++#+++++++%%%%%%%%%%%%%%%%%%%",
"%%  . %%%%++++++++++++++++++++%%%%%%%%%%%%%%%%%%%%",
"%% .  %%%%%+++++++++++++++++++%%%%%%%%%%%%%%%%%%%%",
"%% . %%%%%%%+++++++###+++++++%%%%%%%%%%%%%%%%%%%%%",
"%% . %%%%%%%%+++++##+##+++++%%%%%%%%%%%%%%%%%%%%%%",
"%@@@@@%%%%%%%%++++#+++#++++%%%%%%%%%%%%%%%%%%%%%%%",
"@@@@@@@%%%%%%%%+++++++++++%%%%%%%%%%%%%%%%%%%%%%%%",
"@@XX@@@@%%%%%%%%+++++++++%%%%%%%%%%%%%%%%%%%%%%%%%",
"@XXXX@@@%%%%%%%%+++++++++%%%%%%%%%%%%%%%%%%%%%%%%%",
"@@@@@%@@%%%%%%%%+++###+++%%%%%%%%%%%%%%%%%%%%%%%%%",
"@X@X@%%%%%%%%%%%+++#+#+++%%%%%%%%%%%%%%%%%%%%%%%%%",
"@%@%@%%%%%%%%%%+++++++++++%%%%%%%%%%%%%%%%%%%%%%%%",
"@%@%@%%%%%%@@@@++++++++++++%%%%%%%%%%%%%%%%%%%%%%%",
"%%@%%%%%%%@@X@@@+##+++##++++%%%%%%%%%%%%%%%%%%%%%%",
"%%%%%%%%%%@@XX@@++##+##+++++  %%%%%%%%%%%%%%%%%%%%",
"%%%%%%%%%@@@@@@++++###+++++..   %%%%%%%%%%%%%%%%%%",
"%%%%%%%%%@@@@@..++++#+++++.....  %%%%%%%%%%%%%%%%%",
"%%%%%%%%@@@@@@.  +++#++++    ... %%%%%%%%%%%%%%%%%",
"%%%%%%%%@XX@@@.  ++#+#++       .  %%%%%%%%%%%%%%%%",
"%%%%%%%@@XXXXX@%%@@XXX@@%%%%%  ..  %%%%%%%%%%%%%%%",
"%%%%%%%@@@@XXXX@%%%XXX%%%%%%%%  .. %%%%%%%%%%%%%%%",
"%%%%%%%@@@@@@@@@%%%@@@%%%%%%%%   . %%%%%%%%%%%%%%%",
"%%%%%%%@@%@@%@@@%%%@@@%%%%%%%%   . %%%%%%%%%%%%%%%",
"%%%%%%%%%%@@%@@@%%%%%%%%%%%%%%%  .. %%%%%%%%%%%%%%",
"%%%%%%%%%%%%%@@@%%%%%%%%%%%%%%%   . %%%%%%%%%%%%%%",
"%%%%%%%%%%%%%%%%%%%%%%%%%%%%%%@@XX@@@%%%%%%%%%%%%%",
"%%%%%%%%%%%%%%%%%%%%%%%%%%%%%%@XXXXXX@%%%%%%%%%%%%",
"%%%%%%%%%%%%%%%%%%%%%%%%%%%%%%@X@@@XX@%%%%%%%%%%%%"
};
