/* XPM */
static char *PlayerRun01[] = {
/* columns rows colors chars-per-pixel */
"50 50 17 1 ",
"  c black",
". c gray50",
"X c #880015",
"o c #ED1C24",
"O c #B97A57",
"+ c #22B14C",
"@ c #FFF200",
"# c #3B47C8",
"$ c #3F44CB",
"% c #3F48CC",
"& c #00A2E8",
"* c #FFAEC9",
"= c #C8BFE7",
"- c #99D9EA",
"; c #C3C3C3",
": c white",
"> c None",
/* pixels */
">>>>>>>>>>>>>>>>>>>>>>>>>>>>>>>>>>>>>>>>>>>>>>>>>>",
">>>>>>>>>>>>>>>>>>>@+>>>>>>>@+>>>@+>>>>>>>>>>>>>>>",
">>>>>>>>>>>>>>>>>>>@++>>>>@@++>>@@+>>>>>>>>>>>>>>>",
">>>>>>>>>>>>>>>>>>>@++++>@@++>@@@++>>>>>>>>>>>>>>>",
">>>>>>>>>>>>>>>@+>>+@+++@++++@@+++**>>>>>>>>>>>>>>",
">>>>>>>>>>>>>>>@@++>+@+@+++++++++@******>>>>>>>>>>",
">>>>>>>>>>>>>>>>@+++@+++++++@@+++&&&******>>>>>>>>",
">>>>>>>>>>>>>>>>+@+++++++@++@**&&:: &******>>>>>>>",
">>>>>>>>>>>>>>>>>+@++++++@+****&&:  &******>>>>>>>",
">>>>>>>>>>>>>>>XX>@+++++@+******&&&OO******>>>>>>>",
">>>>>>>>>>>>>>XoX+@++++++********OOO******>>>>>>>>",
">>>>>>>>>>>>>>XoooX++++@+******OOO******>>>>>>>>>>",
">>>>>>>>>>>>>XooXooX++@@@***********>>>>>>>>>>>>>>",
">>>>>>>>>>>>XooXXXooX+@+----%%>>>>>>>>>>>>>>>>>>>>",
">>>>=;******XoXX>XXooXXX-%%%%%%>>>>>>>***>>>>>>>>>",
">>>>>>>O****oXX>>%XXoooX-%%%%%%>>>>>>>*O*>>>>>>>>>",
">>>=;*******oX>>%%-XooXX%%%%%%%>>>>>>X*.=**>>>>>>>",
">>>>>>>O****X>%%%%--XoXX%%%%%%%>>>>>X**O;OO>>>>>>>",
">>>>=;******>>%-----XXX%%%%%%%%>>>>Xo**=;**>>>>>>>",
">>>>>>>>>***>>%--%%%%%%%%%%%%%%>>>XXoX*OOOO>>>>>>>",
">>>>>>>****>>>%--%%%%%%%%%%%%%XX>XXoXX*=;**>>>>>>>",
">>>>>>>=;*>>>>%--%%%%%%%%%%%%ooXXXooX>>>>>>>>>>>>>",
">>>>>>>>>>>>>>$--%%%%%%%%%%%XXooXooX>>>>>>>>>>>>>>",
">>>>>>>>>>>>>>%%--%%%%%%%%#>>>XoooX>>>>>>>>>>>>>>>",
">>>>>>>>>>>>>>>%%--%%%%%%%>>>>>XXoX>>>>>>>>>>>>>>>",
">>>>>>>>>>>>>>>>%--%%%%%%%>>>>>>XX>>>>>>>>>>>>>>>>",
">>>>>>>>>>>>>>>>%%---%%%%%%>>>>>>>>>>>>>>>>>>>>>>>",
"****>>>>>>>>>>>>>%%--%%%%%%%>>>>>>>>>>>>>>>>>>>>>>",
"*****X>>>>>>>>>>>>>%---%%%%%%>>>>>>>>>>>>>>>>>>>>>",
"**OO*oX>>>>>>>>>>>>%%---%%%%%>>>>>>>>>>>>>>>>>>>>>",
"*OO**ooX>>>>>>>>>>>>%%--%%%%%%>>>>>>>>>>>>>>>>>>>>",
"*O***XooXX>>>>>>>>>>>%--%%%%%%%>>>>>>>>>>>>>>>>>>>",
"****>>XooXXX>>>>>>>>%%--%%%%%%%>>>>>>>>>>>>>>>>>>>",
"****>>>XoooXXX>>>>XXXX--%%%%%%%>>>>>>>>>>>>>>>>>>>",
"****>>>>XXoooXXXXXXXXXX%%%%%%%>>>>>>>>>>>>>>>>>>>>",
"****>>>>>XooooooXXXXXXXX%%%%OO>>>>>>>>>>>>>>>>>>>>",
"***>>>>>>>XXXooooooooXXXX%%OOOX>>>>>>>>>>>>>>>>>>>",
"*;;>>>>>>>>>>XXXXXXooooXX%OO*OoXXX>>>>>>>>>>>>>>>>",
"*;;>>>>>>>>>>>>>>>XXooXX%%O***ooooX>>>>>>>>>>>>>>>",
"***>>>>>>>>>>>>>>>>XXXX%%%****XoooXX>>>>>>>>>>>>>>",
">>>>>>>>>>>>>>>>>>>>>%%%%XXX**XXXoooX>>>>>>>>>>>>>",
">>>>>>>>>>>>>>>>>>>>>>>>>>>>**>>XXXooX>>>>>>>>>>>>",
">>>>>>>>>>>>>>>>>>>>>>>>>>>>**>>>>XXooX>>>>>>>>>>>",
">>>>>>>>>>>>>>>>>>>>>>>>>>>>>>>>>>>>XooX>>>>>>>>>>",
">>>>>>>>>>>>>>>>>>>>>>>>>>>>>>>>>>>>>XoX>>>>>>>>>>",
">>>>>>>>>>>>>>>>>>>>>>>>>>>>>>>>>>>>>****>>>>>>>>>",
">>>>>>>>>>>>>>>>>>>>>>>>>>>>>>>>>>>>*OOO*****>>>>>",
">>>>>>>>>>>>>>>>>>>>>>>>>>>>>>>>>>>>*OOO******;==>",
">>>>>>>>>>>>>>>>>>>>>>>>>>>>>>>>>>>>***OOO****;;;>",
">>>>>>>>>>>>>>>>>>>>>>>>>>>>>>>>>>>>*************>"
};
