/* XPM */
static char *Wall01[] = {
/* columns rows colors chars-per-pixel */
"50 50 3 1 ",
"  c black",
". c #880015",
"X c #FF7F27",
/* pixels */
"..........XX .............XX .............XX .....",
"..........XX .............XX .............XX .....",
"..........XX .............XX .............XX .....",
"..........XX .............XX .............XX .....",
"..........XX .............XX .............XX .....",
"..........XX .............XX .............XX .....",
"..........XX .............XX .............XX .....",
"..........XX .............XX .............XX .....",
"XXXXXXXXXXXX XXXXXXXXXXXXXXX XXXXXXXXXXXXXXX XXXXX",
"                                                  ",
"..XX .............XX .............XX .............",
"..XX .............XX .............XX .............",
"..XX .............XX .............XX .............",
"..XX .............XX .............XX .............",
"..XX .............XX .............XX .............",
"..XX .............XX .............XX .............",
"..XX .............XX .............XX .............",
"..XX .............XX .............XX .............",
"XXXX XXXXXXXXXXXXXXX XXXXXXXXXXXXXXX XXXXXXXXXXXXX",
"                                                  ",
"..........XX .............XX .............XX .....",
"..........XX .............XX .............XX .....",
"..........XX .............XX .............XX .....",
"..........XX .............XX .............XX .....",
"..........XX .............XX .............XX .....",
"..........XX .............XX .............XX .....",
"..........XX .............XX .............XX .....",
"..........XX .............XX .............XX .....",
"XXXXXXXXXXXX XXXXXXXXXXXXXXX XXXXXXXXXXXXXXX XXXXX",
"                                                  ",
"..XX .............XX .............XX .............",
"..XX .............XX .............XX .............",
"..XX .............XX .............XX .............",
"..XX .............XX .............XX .............",
"..XX .............XX .............XX .............",
"..XX .............XX .............XX .............",
"..XX .............XX .............XX .............",
"..XX .............XX .............XX .............",
"XXXX XXXXXXXXXXXXXXX XXXXXXXXXXXXXXX XXXXXXXXXXXXX",
"                                                  ",
"..........XX .............XX .............XX .....",
"..........XX .............XX .............XX .....",
"..........XX .............XX .............XX .....",
"..........XX .............XX .............XX .....",
"..........XX .............XX .............XX .....",
"..........XX .............XX .............XX .....",
"..........XX .............XX .............XX .....",
"..........XX .............XX .............XX .....",
"XXXXXXXXXXXX XXXXXXXXXXXXXXX XXXXXXXXXXXXXXX XXXXX",
"                                                  "
};
